<svg width="18" height="18" viewBox="0 0 18 18" fill="none" xmlns="http://www.w3.org/2000/svg">
<circle cx="9" cy="9" r="9" fill="#FFFF00"/>
<g clip-path="url(#clip0_1325_198)">
<path d="M13.607 5.58629C13.2009 5.3676 12.7479 5.78935 12.4823 6.03927C11.8732 6.63284 11.3577 7.32013 10.7797 7.94494C10.1393 8.63223 9.54572 9.31952 8.88967 9.99121C8.51479 10.3661 8.10866 10.7722 7.85874 11.2408C7.29641 10.6941 6.81218 10.1005 6.18738 9.61633C5.73439 9.27268 4.98462 9.02276 5.00024 9.85063C5.03148 10.9285 5.98431 12.0843 6.68722 12.8185C6.98401 13.1309 7.37451 13.4589 7.8275 13.4745C8.37421 13.5058 8.93653 12.8497 9.26456 12.4904C9.84253 11.8656 10.3111 11.1627 10.8422 10.5223C11.5295 9.67881 12.2324 8.85091 12.9041 7.9918C13.3258 7.46071 14.6535 6.14859 13.607 5.58629ZM5.6875 9.78815C5.67188 9.78815 5.65626 9.78815 5.62502 9.80374C5.56254 9.78815 5.51568 9.7725 5.4532 9.74126C5.50006 9.71002 5.57816 9.72564 5.6875 9.78815Z" fill="black"/>
</g>
<defs>
<clipPath id="clip0_1325_198">
<rect width="9" height="9" fill="white" transform="translate(5 5)"/>
</clipPath>
</defs>
</svg>
