<svg width="90" height="90" viewBox="0 0 90 90" fill="none" xmlns="http://www.w3.org/2000/svg">
<path d="M11.2621 64.7948V64.7946L11.2587 52.3274L11.2586 51.8271L10.7583 51.8275L6.5625 51.8309C6.56238 51.8309 6.56226 51.8309 6.56213 51.8309C6.56212 51.8309 6.56211 51.8309 6.5621 51.8309C5.28592 51.8307 4.25 50.7946 4.25 49.5184C4.25 48.242 5.28614 47.2059 6.5625 47.2059H6.56281L13.5213 47.2015V47.2016L13.5303 47.2014C13.5428 47.2012 13.5553 47.201 13.5678 47.201L13.6133 47.2023L13.6204 47.2025H13.6275L78.2431 47.2017L78.253 47.2015C78.2663 47.2012 78.2797 47.201 78.2932 47.201L78.3382 47.2023L78.3382 47.2025L78.3523 47.2025L85.3123 47.2059H85.3125C86.5889 47.2059 87.625 48.242 87.625 49.5184C87.625 50.7946 86.5891 51.8307 85.3129 51.8309C85.3128 51.8309 85.3126 51.8309 85.3125 51.8309L81.1129 51.8275L80.6125 51.8271V52.3275V64.7948C80.6125 73.7848 73.2952 81.1023 64.3012 81.1023H59.7825C58.5061 81.1023 57.47 80.0661 57.47 78.7898C57.47 77.5134 58.5061 76.4773 59.7825 76.4773H64.3012C70.746 76.4773 75.9875 71.236 75.9875 64.7948V52.3275V51.8275H75.4875H16.3837H15.8836L15.8837 52.3276L15.8871 64.7948C15.8871 64.7948 15.8871 64.7948 15.8871 64.7949C15.8872 71.2361 21.1286 76.4773 27.5734 76.4773H32.2084C33.4847 76.4773 34.5209 77.5134 34.5209 78.7898C34.5209 80.0661 33.4847 81.1023 32.2084 81.1023H27.5734C18.5794 81.1023 11.2621 73.7848 11.2621 64.7948ZM64.3009 11.75C73.2949 11.75 80.6121 19.0675 80.6121 28.0538V33.7313C80.6121 35.0076 79.576 36.0438 78.2996 36.0438C77.0233 36.0438 75.9871 35.0076 75.9871 33.7313V28.0538C75.9871 21.6161 70.7456 16.375 64.3009 16.375H59.7821C58.5058 16.375 57.4696 15.3389 57.4696 14.0625C57.4696 12.7861 58.5058 11.75 59.7821 11.75H64.3009ZM32.2091 11.75C33.4855 11.75 34.5216 12.7861 34.5216 14.0625C34.5216 15.3389 33.4855 16.375 32.2091 16.375H27.5741C21.1294 16.375 15.8879 21.6161 15.8879 28.0538V33.7313C15.8879 35.0076 14.8517 36.0438 13.5754 36.0438C12.299 36.0438 11.2629 35.0076 11.2629 33.7313V28.0538C11.2629 19.0675 18.5801 11.75 27.5741 11.75H32.2091Z" stroke="#9F9F9F"/>
</svg>
